 <svg
          width="95"
          height="29"
          viewBox="0 0 95 29"
          fill="none"
          xmlns="http://www.w3.org/2000/svg"
        >
          <path
            d="M30.9607 24.216C29.6487 24.216 28.4167 24.04 27.2647 23.688C26.1287 23.336 25.1607 22.832 24.3607 22.176L25.4167 19.92C26.2487 20.544 27.1127 21.008 28.0087 21.312C28.9207 21.6 29.9127 21.744 30.9847 21.744C32.1687 21.744 33.0807 21.536 33.7207 21.12C34.3767 20.704 34.7047 20.12 34.7047 19.368C34.7047 18.728 34.4007 18.24 33.7927 17.904C33.2007 17.552 32.2167 17.224 30.8407 16.92C28.6967 16.456 27.1367 15.856 26.1607 15.12C25.1847 14.384 24.6967 13.312 24.6967 11.904C24.6967 10.896 24.9687 10 25.5127 9.216C26.0567 8.432 26.8247 7.816 27.8167 7.368C28.8247 6.92 29.9847 6.696 31.2967 6.696C32.4967 6.696 33.6327 6.88 34.7047 7.248C35.7927 7.6 36.6807 8.096 37.3687 8.736L36.3367 10.992C34.8167 9.776 33.1367 9.168 31.2967 9.168C30.1927 9.168 29.3207 9.4 28.6807 9.864C28.0407 10.312 27.7207 10.928 27.7207 11.712C27.7207 12.384 28.0007 12.896 28.5607 13.248C29.1367 13.6 30.1127 13.928 31.4887 14.232C32.9127 14.568 34.0727 14.936 34.9687 15.336C35.8647 15.72 36.5527 16.224 37.0327 16.848C37.5127 17.456 37.7527 18.224 37.7527 19.152C37.7527 20.176 37.4807 21.072 36.9367 21.84C36.3927 22.592 35.6087 23.176 34.5847 23.592C33.5607 24.008 32.3527 24.216 30.9607 24.216ZM47.414 11.568C50.31 11.568 51.758 13.232 51.758 16.56V24H48.758V16.704C48.758 15.744 48.574 15.048 48.206 14.616C47.838 14.168 47.27 13.944 46.502 13.944C45.59 13.944 44.854 14.24 44.294 14.832C43.734 15.408 43.454 16.176 43.454 17.136V24H40.478V15.312C40.478 14.032 40.414 12.888 40.286 11.88H43.094L43.31 13.872C43.726 13.136 44.286 12.568 44.99 12.168C45.71 11.768 46.518 11.568 47.414 11.568ZM66.6029 11.88V24H63.6509V22.056C63.2829 22.728 62.7549 23.256 62.0669 23.64C61.3789 24.008 60.5949 24.192 59.7149 24.192C58.6589 24.192 57.7229 23.936 56.9069 23.424C56.0909 22.912 55.4589 22.184 55.0109 21.24C54.5629 20.296 54.3389 19.2 54.3389 17.952C54.3389 16.704 54.5629 15.6 55.0109 14.64C55.4749 13.664 56.1149 12.912 56.9309 12.384C57.7469 11.84 58.6749 11.568 59.7149 11.568C60.5949 11.568 61.3789 11.76 62.0669 12.144C62.7549 12.512 63.2829 13.032 63.6509 13.704V11.88H66.6029ZM60.5309 21.84C61.5229 21.84 62.2909 21.496 62.8349 20.808C63.3789 20.12 63.6509 19.152 63.6509 17.904C63.6509 16.624 63.3789 15.64 62.8349 14.952C62.2909 14.264 61.5149 13.92 60.5069 13.92C59.5149 13.92 58.7389 14.28 58.1789 15C57.6349 15.704 57.3629 16.688 57.3629 17.952C57.3629 19.2 57.6349 20.16 58.1789 20.832C58.7389 21.504 59.5229 21.84 60.5309 21.84ZM75.4383 24.192C74.1743 24.192 73.0783 23.936 72.1503 23.424C71.2223 22.912 70.5103 22.192 70.0143 21.264C69.5183 20.32 69.2703 19.216 69.2703 17.952C69.2703 16.688 69.5263 15.576 70.0383 14.616C70.5663 13.656 71.3023 12.912 72.2463 12.384C73.2063 11.84 74.3103 11.568 75.5583 11.568C76.4223 11.568 77.2543 11.704 78.0543 11.976C78.8703 12.248 79.5183 12.624 79.9983 13.104L79.1583 15.216C78.6463 14.8 78.1023 14.488 77.5263 14.28C76.9503 14.056 76.3823 13.944 75.8223 13.944C74.7343 13.944 73.8863 14.288 73.2783 14.976C72.6703 15.648 72.3663 16.624 72.3663 17.904C72.3663 19.184 72.6623 20.16 73.2543 20.832C73.8623 21.504 74.7183 21.84 75.8223 21.84C76.3823 21.84 76.9503 21.728 77.5263 21.504C78.1023 21.28 78.6463 20.96 79.1583 20.544L79.9983 22.656C79.4863 23.136 78.8223 23.512 78.0063 23.784C77.1903 24.056 76.3343 24.192 75.4383 24.192ZM90.3646 24L85.0606 18.408V24H82.0846V6.336H85.0606V17.232L90.0526 11.904H93.6766L88.2286 17.688L94.1086 24H90.3646Z"
            fill="white"
          />
          <path
            d="M0 11.3042V14.8061C1.202 14.8052 2.39237 15.0404 3.50299 15.498C4.61362 15.9557 5.6227 16.6269 6.4725 17.4732C7.32209 18.3192 7.99586 19.3236 8.45528 20.429C8.91471 21.5344 9.15078 22.7191 9.15 23.9154H12.665C12.6618 20.5721 11.3265 17.3666 8.95215 15.0023C6.57776 12.638 3.35822 11.308 0 11.3042H0Z"
            fill="white"
          />
          <path
            d="M17.5786 5H12.0081C14.8261 6.77788 17.2138 9.15471 19.0001 11.9599V6.41419C18.9998 6.03903 18.8499 5.67933 18.5834 5.41414C18.3168 5.14896 17.9554 5 17.5786 5V5Z"
            fill="white"
          />
          <path
            d="M3.5 5H0V8.15292C4.19788 8.15727 8.22258 9.81935 11.191 12.7745C14.1594 15.7296 15.829 19.7363 15.8335 23.9156H19V20.4311C18.2841 16.6015 16.42 13.0774 13.6533 10.323C10.8865 7.56852 7.34673 5.71275 3.5 5V5Z"
            fill="white"
          />
        </svg>

